<?xml version="1.0" standalone="no"?><!DOCTYPE svg PUBLIC "-//W3C//DTD SVG 1.1//EN" "http://www.w3.org/Graphics/SVG/1.1/DTD/svg11.dtd"><svg t="1636122673891" class="icon" viewBox="0 0 1024 1024" version="1.1" xmlns="http://www.w3.org/2000/svg" p-id="29460" xmlns:xlink="http://www.w3.org/1999/xlink" width="200" height="200"><defs><style type="text/css"></style></defs><path d="M511.577375 61.189617c-259.266905 0-469.443765 210.17686-469.443766 469.443766 0 259.20039 210.17686 469.443765 469.443766 469.443765 4.627391 0 9.254781-0.268106 13.814633-0.268107 6.974855-50.901297 42.116213-102.606913 71.222112-143.181003 35.543517-49.627281 72.293513-98.649787 102.606912-151.763472 20.721951-36.482913 41.175795-77.458139 46.809096-118.634958 3.957125-27.764344-1.876744-53.584406-15.35778-74.842568-2.816139-4.560876-9.724479-3.01773-10.930957 2.212388-12.004405 48.889477-40.238446 99.253538-83.09144 142.309146-96.437399 96.436376-230.631728 118.567419-299.906487 49.291636-69.276806-69.276806-47.012733-203.403596 49.424666-299.908534 96.437399-96.369861 230.631728-118.500904 299.907511-49.225121 15.8285 15.759939 26.89351 35.008328 33.397644 56.534597 39.768749 27.02654 70.01461 64.649416 80.878029 113.001657 11.267625 49.961902-1.743714 99.321076-20.052708 145.929604-23.672142 59.752896-57.405431 114.745371-87.852884 171.213453-14.888082 27.629267-29.372981 55.729256-40.437991 85.237313-4.225231 11.200086-12.808724 35.811624-13.144368 54.522778 197.501166-55.528688 342.156754-236.666164 342.156753-451.873598 0.001023-259.265882-210.175837-469.442742-469.442741-469.442742zM456.920544 337.556992c-34.471093 15.291265-66.191538 37.287231-94.157473 65.38722-47.078225 47.010687-77.458139 105.424074-85.705988 164.172083-4.092201 29.238928-2.415003 57.20384 4.827959 82.957387 5.298679 18.777669 13.546527 36.014238 24.545022 51.170426-3.755534-3.084245-7.377014-6.237051-10.863418-9.790993-69.14173-69.143777-50.02944-200.519919 42.785455-293.269324 62.301951-62.166875 141.839449-91.339288 208.433147-82.823333-29.508058 1.474584-60.356646 9.05319-89.864704 22.196534z" fill="#1296db" p-id="29461"></path></svg>