<?xml version="1.0" standalone="no"?><!DOCTYPE svg PUBLIC "-//W3C//DTD SVG 1.1//EN" "http://www.w3.org/Graphics/SVG/1.1/DTD/svg11.dtd"><svg t="1635500048478" class="icon" viewBox="0 0 1194 1024" version="1.1" xmlns="http://www.w3.org/2000/svg" p-id="23128" xmlns:xlink="http://www.w3.org/1999/xlink" width="233.203125" height="200"><defs><style type="text/css"></style></defs><path d="M27.648 357.12c-36.778667-19.84-36.864-51.925333-0.170667-71.68L530.005333 14.848c36.693333-19.797333 96.426667-19.797333 133.290667 0l503.722667 271.36c36.821333 19.754667 36.906667 51.925333 0.085333 71.68L664.746667 628.48c-36.693333 19.797333-96.426667 19.797333-133.290667-0.085333L27.648 357.162667z m983.04 179.072a39.850667 39.850667 0 0 0 17.322667-15.530667h165.290666c-3.157333 10.069333-11.861333 19.541333-26.197333 27.221334L664.746667 818.517333c-36.693333 19.754667-96.426667 19.754667-133.290667-0.085333L27.648 547.072c-13.909333-7.552-22.528-16.768-25.941333-26.453333h166.4a40.96 40.96 0 0 0 17.237333 14.890666l364.885333 189.738667c26.709333 13.909333 69.973333 13.909333 96.512 0.085333l363.946667-189.312v0.170667z m0 190.677333a39.936 39.936 0 0 0 17.322667-15.530666h165.290666c-3.157333 10.069333-11.861333 19.541333-26.197333 27.221333l-502.442667 270.634667c-36.693333 19.754667-96.426667 19.754667-133.290666-0.085334L27.648 737.706667c-13.909333-7.552-22.613333-16.768-26.026667-26.453334h166.4a40.96 40.96 0 0 0 17.237334 14.890667l364.885333 189.738667c26.709333 13.909333 69.973333 13.909333 96.512 0.085333l363.946667-189.312 0.085333 0.170667z" fill="#3882F5" p-id="23129"></path></svg>